<svg width="99" height="99" fill="none" xmlns="http://www.w3.org/2000/svg"><circle cx="49.5" cy="49.5" r="46" fill="#2378C9" stroke="#67A9E9" stroke-width="7"/><g clip-path="url(#clip0_3_287)" fill="#fff"><path d="M68.879 34.182h1.483a.937.937 0 000-1.874h-3.56a.937.937 0 00-.937.937v3.56a.937.937 0 001.873 0v-1.031A22.054 22.054 0 0172.126 49c0 12.2-9.926 22.126-22.126 22.126-12.2 0-22.126-9.926-22.126-22.126 0-12.2 9.926-22.126 22.126-22.126.902 0 1.81.055 2.7.163a.938.938 0 00.225-1.86A24.343 24.343 0 0050 25a23.843 23.843 0 00-16.97 7.03A23.843 23.843 0 0026 49c0 6.41 2.496 12.438 7.03 16.97A23.843 23.843 0 0050 73c6.41 0 12.438-2.496 16.97-7.03A23.843 23.843 0 0074 49a23.92 23.92 0 00-5.121-14.818z"/><path d="M36.163 39.148a.937.937 0 00-1.293.29 17.963 17.963 0 00-2.666 11.44 17.936 17.936 0 005.143 10.776A17.839 17.839 0 0050 66.886c4.583 0 9.165-1.744 12.653-5.232 6.977-6.978 6.977-18.33 0-25.307a17.936 17.936 0 00-10.758-5.141A17.964 17.964 0 0040.47 33.85a.937.937 0 101 1.585c6.364-4.012 14.531-3.093 19.86 2.236 6.246 6.246 6.246 16.41 0 22.657-6.247 6.246-16.41 6.246-22.657 0-5.255-5.255-6.188-13.62-2.219-19.888a.937.937 0 00-.29-1.293z"/><path d="M62.18 49.952h1.155a.937.937 0 000-1.874H62.18a.937.937 0 000 1.874zm-26.452-.967c0 .517.42.937.937.937h1.155a.937.937 0 000-1.874h-1.155a.937.937 0 00-.937.937zM50.952 36.82v-1.155a.937.937 0 00-1.874 0v1.155a.937.937 0 001.874 0zm-1.904 24.36v1.155a.937.937 0 001.874 0V61.18a.937.937 0 00-1.874 0zm-3.744-18.201a.937.937 0 00-1.325 1.325l3.175 3.175A3.208 3.208 0 0046.772 49 3.231 3.231 0 0050 52.228 3.231 3.231 0 0053.228 49c0-.55-.139-1.067-.382-1.52l6.407-6.407a.937.937 0 10-1.325-1.325l-6.407 6.406a3.207 3.207 0 00-1.52-.382c-.55 0-1.068.139-1.522.382l-3.175-3.175zM51.354 49c0 .747-.607 1.354-1.354 1.354A1.355 1.355 0 0148.646 49c0-.746.608-1.354 1.354-1.354.747 0 1.354.608 1.354 1.354zM38.671 37.671a.94.94 0 00.276-.662.942.942 0 00-.938-.937c-.247 0-.488.1-.663.274a.944.944 0 00-.274.663c0 .247.1.488.274.662a.944.944 0 00.663.275c.247 0 .488-.1.662-.275zM56.49 27.8a.94.94 0 00.938-.938.94.94 0 00-.275-.662.945.945 0 00-.663-.274c-.247 0-.488.1-.663.274a.944.944 0 00-.274.662.94.94 0 00.937.937z"/></g><defs><clipPath id="clip0_3_287"><path fill="#fff" transform="translate(26 25)" d="M0 0h48v48H0z"/></clipPath></defs></svg>