<svg viewBox="0 0 22 23" xmlns="http://www.w3.org/2000/svg" xmlns:xlink="http://www.w3.org/1999/xlink"><style>:root&gt;svg{display:none}:root&gt;svg:target{display:block}</style><svg viewBox="0 0 19 19" id="close" xmlns="http://www.w3.org/2000/svg"><path d="M.977 19a.977.977 0 01-.69-1.67L17.33.287a.977.977 0 111.383 1.383L1.669 18.714A.98.98 0 01.977 19z"/><path d="M18.023 19a.97.97 0 01-.69-.286L.285 1.669A.978.978 0 011.67.286l17.045 17.045a.978.978 0 01-.69 1.67z"/></svg><svg viewBox="0 0 21 16" id="email" xmlns="http://www.w3.org/2000/svg"><g clip-path="url(#bclip0_1_16)"><path d="M19.031.5H1.97C.883.5 0 1.341 0 2.375v11.25C0 14.659.883 15.5 1.969 15.5H19.03c1.086 0 1.969-.841 1.969-1.875V2.375C21 1.341 20.117.5 19.031.5zm0 1.25c.09 0 .174.018.252.048L10.5 9.048l-8.783-7.25a.681.681 0 01.252-.048H19.03zm0 12.5H1.97c-.362 0-.657-.28-.657-.625V3.119l8.758 7.228a.675.675 0 00.43.153.67.67 0 00.43-.153l8.758-7.228v10.506c0 .345-.295.625-.657.625z" fill="#fff"/></g><defs><clipPath id="bclip0_1_16"><path d="M0 0h21v16H0z"/></clipPath></defs></svg><svg viewBox="0 0 22 22" id="instagram" xmlns="http://www.w3.org/2000/svg"><g clip-path="url(#cclip0_1_35)"><path d="M21.979 6.468c-.052-1.169-.241-1.973-.512-2.669a5.37 5.37 0 00-1.272-1.951A5.415 5.415 0 0018.248.58c-.7-.27-1.5-.46-2.669-.511C14.402.013 14.028 0 11.041 0S7.68.013 6.507.064c-1.17.052-1.973.241-2.669.512-.74.28-1.401.709-1.951 1.272A5.416 5.416 0 00.619 3.795c-.27.7-.46 1.5-.511 2.669-.056 1.177-.07 1.551-.07 4.538s.014 3.36.065 4.534c.052 1.17.24 1.973.512 2.67.279.738.713 1.4 1.272 1.95.55.559 1.216.993 1.947 1.268.7.27 1.5.46 2.669.512 1.173.051 1.547.064 4.534.064s3.36-.013 4.534-.064c1.169-.052 1.972-.241 2.668-.512a5.627 5.627 0 003.22-3.219c.27-.7.46-1.5.511-2.669.052-1.173.064-1.547.064-4.534s-.004-3.36-.055-4.534zm-1.982 8.982c-.047 1.075-.227 1.655-.378 2.042a3.65 3.65 0 01-2.089 2.088c-.386.15-.97.331-2.041.379-1.16.051-1.508.064-4.444.064-2.935 0-3.288-.013-4.444-.064-1.074-.048-1.654-.228-2.041-.378a3.386 3.386 0 01-1.264-.822 3.42 3.42 0 01-.82-1.263c-.15-.387-.331-.971-.379-2.041-.051-1.16-.064-1.509-.064-4.444 0-2.936.013-3.288.064-4.444.048-1.074.228-1.655.378-2.041a3.34 3.34 0 01.826-1.264 3.415 3.415 0 011.263-.82c.387-.151.972-.332 2.042-.38 1.16-.05 1.508-.064 4.443-.064 2.94 0 3.288.013 4.444.065 1.075.047 1.655.228 2.042.378.477.176.91.456 1.263.82.366.358.645.787.821 1.265.15.386.331.97.378 2.04.052 1.161.065 1.51.065 4.445 0 2.935-.013 3.279-.065 4.44z"/><path d="M11.04 5.35a5.653 5.653 0 00-5.65 5.652 5.653 5.653 0 005.65 5.652 5.653 5.653 0 005.652-5.652 5.653 5.653 0 00-5.651-5.651zm0 9.318a3.667 3.667 0 11.002-7.333 3.667 3.667 0 01-.001 7.333zm7.195-9.541a1.32 1.32 0 11-2.639 0 1.32 1.32 0 012.64 0z"/></g><defs><clipPath id="cclip0_1_35"><path d="M0 0h22v22H0z"/></clipPath></defs></svg><svg viewBox="0 0 18 23" id="location" xmlns="http://www.w3.org/2000/svg"><g clip-path="url(#dclip0_1_24)"><path d="M8.436 22.7a.68.68 0 001.128 0c1.605-2.392 3.968-5.346 5.615-8.35 1.317-2.403 1.957-4.452 1.957-6.264C17.136 3.627 13.486 0 9 0 4.514 0 .864 3.627.864 8.086c0 1.812.64 3.861 1.957 6.263 1.646 3.003 4.014 5.964 5.615 8.35zM9 1.348c3.739 0 6.78 3.022 6.78 6.738 0 1.581-.586 3.42-1.792 5.619-1.42 2.59-3.445 5.216-4.988 7.425-1.543-2.208-3.569-4.835-4.988-7.425-1.206-2.2-1.792-4.038-1.792-5.62C2.22 4.37 5.26 1.349 9 1.349z"/><path d="M9 12.129c2.243 0 4.068-1.814 4.068-4.043 0-2.23-1.825-4.043-4.068-4.043-2.243 0-4.068 1.814-4.068 4.043 0 2.23 1.825 4.043 4.068 4.043zM9 5.39a2.707 2.707 0 012.712 2.695A2.707 2.707 0 019 10.78a2.707 2.707 0 01-2.712-2.695A2.707 2.707 0 019 5.39z"/></g><defs><clipPath id="dclip0_1_24"><path d="M0 0h18v23H0z"/></clipPath></defs></svg><svg viewBox="0 0 16 16" id="phone" xmlns="http://www.w3.org/2000/svg"><g clip-path="url(#eclip0_1_11)"><path d="M3.26 10.636a16.973 16.973 0 005.646 4.422c.826.392 1.93.856 3.16.935.076.004.15.007.225.007.826 0 1.489-.285 2.03-.872.003-.003.01-.01.013-.017.192-.232.41-.44.64-.663.155-.149.315-.305.467-.464.706-.736.706-1.67-.007-2.383l-1.992-1.993c-.338-.351-.743-.537-1.167-.537-.425 0-.832.186-1.18.534L9.908 10.79a7.503 7.503 0 00-.329-.172 4.105 4.105 0 01-.364-.199c-1.081-.686-2.062-1.581-3-2.732-.475-.6-.793-1.104-1.015-1.618.311-.281.603-.576.885-.865.1-.103.202-.205.305-.308.358-.358.55-.773.55-1.194 0-.42-.189-.835-.55-1.193l-.988-.988c-.116-.116-.225-.229-.338-.345A18.184 18.184 0 004.39.511C4.049.176 3.648 0 3.224 0c-.421 0-.826.176-1.18.514l-1.24 1.24c-.451.45-.707.998-.76 1.631-.063.792.083 1.634.461 2.652.58 1.575 1.456 3.037 2.755 4.599zM.853 3.455c.04-.441.21-.81.527-1.128l1.234-1.233c.192-.186.404-.282.61-.282.202 0 .408.096.597.289.222.205.43.42.656.65l.345.351.988.988c.205.205.311.414.311.62 0 .205-.106.414-.311.62l-.309.312c-.308.311-.596.606-.915.888l-.016.017c-.275.275-.232.537-.166.736l.01.026c.255.614.61 1.197 1.164 1.893.994 1.227 2.042 2.178 3.196 2.911.142.093.295.166.437.239.133.066.256.13.365.199l.037.02a.693.693 0 00.321.082.703.703 0 00.494-.225l1.24-1.24c.192-.192.401-.295.607-.295.252 0 .457.156.587.295l1.999 1.996c.398.398.394.829-.01 1.25-.14.15-.285.292-.441.44-.232.226-.474.458-.693.72-.381.411-.835.604-1.422.604-.057 0-.116-.004-.173-.007-1.087-.07-2.098-.494-2.858-.855a16.126 16.126 0 01-5.374-4.21c-1.236-1.49-2.069-2.875-2.619-4.36C.93 4.853.801 4.12.853 3.454z" fill="#fff"/></g><defs><clipPath id="eclip0_1_11"><path d="M0 0h16v16H0z"/></clipPath></defs></svg><svg viewBox="0 0 22 22" id="twitter" xmlns="http://www.w3.org/2000/svg"><path d="M21.903 4.707a.656.656 0 00-.616-.31l-1.097.095 1.048-2.114a.656.656 0 00-.876-.88l-2.775 1.359c-1.715-.905-3.857-.637-5.33.706-1.23 1.12-1.877 2.844-1.757 4.563-3.215-.323-5.937-2.163-7.546-5.137a.656.656 0 00-1.105-.078C.851 4.26.781 6.11 1.564 7.63a9.942 9.942 0 01-.7-.214.656.656 0 00-.855.73c.31 1.877 1.404 3.32 3.133 4.173a5.516 5.516 0 01-.688.191.656.656 0 00-.345 1.09c1.245 1.332 3.044 1.987 4.321 2.301-1.452 1.138-3.02 1.328-5.3 1.25a.658.658 0 00-.508 1.096c.95 1.047 4.411 2.228 8.05 2.317.143.003.29.005.44.005 2.554 0 5.93-.548 8.354-2.971 1.834-1.834 2.981-3.946 3.41-6.276.346-1.882.127-3.389.022-4.113l-.023-.159 1.026-1.654a.656.656 0 00.002-.69zm-2.304 2.69c.195 1.342.787 5.425-3.06 9.273-2.238 2.237-5.496 2.639-7.836 2.582-1.996-.049-3.782-.43-5.076-.866a8.115 8.115 0 001.436-.301c1.218-.379 2.248-1.06 3.24-2.145a.656.656 0 00-.401-1.093c-.626-.08-2.506-.397-3.986-1.418a7.062 7.062 0 001.23-.653.656.656 0 00-.195-1.182c-1.212-.317-2.674-1.028-3.348-2.615.43.076.898.094 1.398-.018a.656.656 0 00.328-1.096c-.839-.869-1.153-2.12-.883-3.192a11.193 11.193 0 003.277 3.174 10.884 10.884 0 005.525 1.638.658.658 0 00.656-.798c-.34-1.53.145-3.16 1.236-4.154 1.132-1.03 2.804-1.187 4.068-.38a.656.656 0 00.641.036l1.356-.663-.71 1.43a.656.656 0 00.645.945l.956-.083-.44.71c-.148.237-.118.449-.057.87z"/></svg><svg viewBox="0 0 22 22" id="vk" xmlns="http://www.w3.org/2000/svg"><g clip-path="url(#gclip0_1_40)"><path d="M11.133 17.875c3.183 0 2.048-2.015 2.293-2.594-.003-.433-.007-.849.008-1.102.201.057.677.298 1.66 1.253 1.517 1.53 1.905 2.443 3.13 2.443h2.256c.715 0 1.087-.296 1.273-.544.18-.24.356-.662.164-1.319-.504-1.58-3.439-4.309-3.621-4.597.027-.053.071-.123.094-.16h-.002c.58-.766 2.79-4.078 3.116-5.404l.002-.007c.176-.605.015-.998-.152-1.22-.251-.331-.651-.499-1.191-.499h-2.256c-.755 0-1.328.38-1.618 1.074-.485 1.233-1.847 3.769-2.868 4.666a58.735 58.735 0 01.006-2.963c.033-1.407.14-2.777-1.32-2.777H8.56c-.915 0-1.79 1-.843 2.185.829 1.04.298 1.62.477 4.503-.697-.747-1.936-2.765-2.812-5.343-.246-.698-.618-1.344-1.666-1.344H1.461C.546 4.126 0 4.625 0 5.46c0 1.875 4.152 12.415 11.133 12.415zM3.717 5.501c.199 0 .22 0 .367.419.897 2.643 2.91 6.553 4.38 6.553 1.105 0 1.105-1.132 1.105-1.558V7.52c-.062-1.122-.471-1.68-.739-2.02l3.216.004c.002.015-.018 3.753.01 4.66 0 1.285 1.02 2.022 2.614.409 1.682-1.899 2.846-4.737 2.892-4.852.07-.165.129-.221.345-.221h2.266l-.003.008c-.206.963-2.242 4.03-2.923 4.982a.821.821 0 00-.031.046c-.3.49-.544 1.03.041 1.791h.001c.053.065.192.215.393.424.627.647 2.778 2.86 2.968 3.74-.126.02-.264.005-2.395.01-.454 0-.808-.678-2.162-2.044-1.218-1.185-2.008-1.669-2.727-1.669-1.397 0-1.296 1.134-1.283 2.506.005 1.486-.004 1.016.006 1.11-.082.032-.316.096-.925.096-5.816 0-9.604-9.232-9.75-10.996.05-.005.745-.002 2.334-.003z"/></g><defs><clipPath id="gclip0_1_40"><path d="M0 0h22v22H0z"/></clipPath></defs></svg></svg>