<svg viewBox="0 0 99 99" xmlns="http://www.w3.org/2000/svg" xmlns:xlink="http://www.w3.org/1999/xlink"><style>:root&gt;svg{display:none}:root&gt;svg:target{display:block}</style><svg fill="none" viewBox="0 0 99 99" id="advantages--1" xmlns="http://www.w3.org/2000/svg"><circle cx="49.5" cy="49.5" r="46" fill="#2378C9" stroke="#67A9E9" stroke-width="7"/><g clip-path="url(#aclip0_3_287)" fill="#fff"><path d="M68.879 34.182h1.483a.937.937 0 000-1.874h-3.56a.937.937 0 00-.937.937v3.56a.937.937 0 001.873 0v-1.031A22.054 22.054 0 0172.126 49c0 12.2-9.926 22.126-22.126 22.126-12.2 0-22.126-9.926-22.126-22.126 0-12.2 9.926-22.126 22.126-22.126.902 0 1.81.055 2.7.163a.938.938 0 00.225-1.86A24.343 24.343 0 0050 25a23.843 23.843 0 00-16.97 7.03A23.843 23.843 0 0026 49c0 6.41 2.496 12.438 7.03 16.97A23.843 23.843 0 0050 73c6.41 0 12.438-2.496 16.97-7.03A23.843 23.843 0 0074 49a23.92 23.92 0 00-5.121-14.818z"/><path d="M36.163 39.148a.937.937 0 00-1.293.29 17.963 17.963 0 00-2.666 11.44 17.936 17.936 0 005.143 10.776A17.839 17.839 0 0050 66.886c4.583 0 9.165-1.744 12.653-5.232 6.977-6.978 6.977-18.33 0-25.307a17.936 17.936 0 00-10.758-5.141A17.964 17.964 0 0040.47 33.85a.937.937 0 101 1.585c6.364-4.012 14.531-3.093 19.86 2.236 6.246 6.246 6.246 16.41 0 22.657-6.247 6.246-16.41 6.246-22.657 0-5.255-5.255-6.188-13.62-2.219-19.888a.937.937 0 00-.29-1.293z"/><path d="M62.18 49.952h1.155a.937.937 0 000-1.874H62.18a.937.937 0 000 1.874zm-26.452-.967c0 .517.42.937.937.937h1.155a.937.937 0 000-1.874h-1.155a.937.937 0 00-.937.937zM50.952 36.82v-1.155a.937.937 0 00-1.874 0v1.155a.937.937 0 001.874 0zm-1.904 24.36v1.155a.937.937 0 001.874 0V61.18a.937.937 0 00-1.874 0zm-3.744-18.201a.937.937 0 00-1.325 1.325l3.175 3.175A3.208 3.208 0 0046.772 49 3.231 3.231 0 0050 52.228 3.231 3.231 0 0053.228 49c0-.55-.139-1.067-.382-1.52l6.407-6.407a.937.937 0 10-1.325-1.325l-6.407 6.406a3.207 3.207 0 00-1.52-.382c-.55 0-1.068.139-1.522.382l-3.175-3.175zM51.354 49c0 .747-.607 1.354-1.354 1.354A1.355 1.355 0 0148.646 49c0-.746.608-1.354 1.354-1.354.747 0 1.354.608 1.354 1.354zM38.671 37.671a.94.94 0 00.276-.662.942.942 0 00-.938-.937c-.247 0-.488.1-.663.274a.944.944 0 00-.274.663c0 .247.1.488.274.662a.944.944 0 00.663.275c.247 0 .488-.1.662-.275zM56.49 27.8a.94.94 0 00.938-.938.94.94 0 00-.275-.662.945.945 0 00-.663-.274c-.247 0-.488.1-.663.274a.944.944 0 00-.274.662.94.94 0 00.937.937z"/></g><defs><clipPath id="aclip0_3_287"><path fill="#fff" transform="translate(26 25)" d="M0 0h48v48H0z"/></clipPath></defs></svg><svg fill="none" viewBox="0 0 99 99" id="advantages--2" xmlns="http://www.w3.org/2000/svg"><circle cx="49.5" cy="49.5" r="46" fill="#2378C9" stroke="#67A9E9" stroke-width="7"/><path d="M46.402 55.608l-9.11-9.001a3.124 3.124 0 00-2.224-.921 3.13 3.13 0 00-1.613.443V35.294c0-.554-.144-1.074-.396-1.526a1.614 1.614 0 012.132 1.525v7.965a.766.766 0 101.532 0v-7.965a3.148 3.148 0 00-4.778-2.685 3.126 3.126 0 00-1.634-.459 3.148 3.148 0 00-3.144 3.145l.013 15.104c0 .676.251 1.631.583 2.221.005.01.01.02.016.028l9.435 15.228c.199.362.378 1.053.378 1.46v2.886a.766.766 0 001.532 0v-2.887c0-.677-.25-1.632-.582-2.222a.66.66 0 00-.017-.028l-9.434-15.228c-.199-.363-.379-1.053-.38-1.46L28.7 35.294a1.613 1.613 0 013.224 0V48.83c0 .02.002.038.003.057.014.786.32 1.568.918 2.167l7.318 7.318a.766.766 0 101.084-1.084l-7.318-7.318a1.602 1.602 0 01-.473-1.14c0-.43.168-.836.473-1.14a1.6 1.6 0 011.14-.472c.43 0 .835.167 1.143.475l9.111 9.001c1.014 1.014 1.87 3.08 1.87 4.513v11.027a.766.766 0 101.531 0V61.207c0-1.838-1.018-4.296-2.32-5.6zm23.287-23.459a3.12 3.12 0 00-1.633.459 3.13 3.13 0 00-1.635-.46 3.148 3.148 0 00-3.144 3.145v7.965a.766.766 0 101.531 0v-7.965a1.614 1.614 0 012.133-1.525 3.124 3.124 0 00-.396 1.525V46.13a3.125 3.125 0 00-1.613-.444c-.84 0-1.63.328-2.22.918l-9.118 9.008c-1.3 1.3-2.317 3.758-2.317 5.596v11.027a.766.766 0 101.532 0V61.207c0-1.433.855-3.5 1.865-4.51l9.118-9.007c.305-.305.71-.472 1.14-.472.431 0 .836.167 1.14.472a1.6 1.6 0 01.473 1.14c0 .43-.168.836-.472 1.14l-7.318 7.318a.766.766 0 101.083 1.084l7.318-7.319c.598-.598.904-1.38.918-2.166l.003-.057V35.293a1.614 1.614 0 013.225 0l-.014 15.103c0 .407-.18 1.097-.379 1.46l-9.434 15.228a.981.981 0 00-.017.028c-.331.59-.581 1.545-.581 2.222v2.887a.766.766 0 001.531 0v-2.887c0-.407.18-1.097.379-1.459l9.434-15.228a.794.794 0 00.016-.028c.332-.59.583-1.545.583-2.222l.014-15.104a3.148 3.148 0 00-3.145-3.144z" fill="#fff"/><path d="M60.979 30.617a.766.766 0 00.766-.766v-4.085a.766.766 0 00-.766-.766H39.02a.766.766 0 00-.766.766v4.085c0 .423.343.766.766.766h.256v1.532h-.256a.766.766 0 00-.766.766V37c0 .423.343.766.766.766h.256v1.532h-.256a.766.766 0 00-.766.766v4.085c0 .423.343.766.766.766h21.96a.766.766 0 00.766-.766v-4.085a.766.766 0 00-.766-.766h-.255v-1.532h.255a.766.766 0 00.766-.766v-4.085a.766.766 0 00-.766-.766h-.255v-1.532h.255zm-.766 12.766H39.787V40.83h20.426v2.553zm0-7.149h-3.32a.766.766 0 100 1.532h2.298v1.532H40.808v-1.532H53.83a.766.766 0 100-1.532H39.787v-2.553h20.426v2.553zM40.809 32.15v-1.532H59.19v1.532H40.808zm19.404-3.064H39.787v-2.553h20.426v2.553z" fill="#fff"/></svg><svg fill="none" viewBox="0 0 99 99" id="advantages--3" xmlns="http://www.w3.org/2000/svg"><circle cx="49.5" cy="49.5" r="46" fill="#2378C9" stroke="#67A9E9" stroke-width="7"/><g clip-path="url(#cclip0_3_322)" fill="#fff"><path d="M54.754 52.694a14.948 14.948 0 00-4.008-19.44 7.33 7.33 0 00-3.683-6.296 9.176 9.176 0 00-4.548-1.208h-1.53a9.176 9.176 0 00-4.548 1.208 7.33 7.33 0 00-3.683 6.3 14.989 14.989 0 003.926 26.103l-1.365 2.389H29A2.25 2.25 0 0026.75 64v6A2.25 2.25 0 0029 72.25h19.5A2.25 2.25 0 0050.75 70v-6a2.25 2.25 0 00-2.25-2.25h-6.315l-.865-1.514c.144.005.287.014.43.014 2.613 0 5.18-.688 7.444-1.996l12.843 12.844a3.932 3.932 0 005.562-5.56L54.754 52.693zM37.181 28.26a7.682 7.682 0 013.804-1.01h1.53a7.68 7.68 0 013.804 1.01 5.79 5.79 0 012.181 7.885v-.782a5.227 5.227 0 00-.882-2.913l-.744-1.116a.75.75 0 00-1.074-.184l-1 .75a6.789 6.789 0 01-4.05 1.35h-2a3.756 3.756 0 00-3.675 3.014 5.779 5.779 0 012.106-8.004zm1.569 16.277v2.325l-1.205.201a7.013 7.013 0 00-3.9 2.072 8.942 8.942 0 011.4-9.88 6.756 6.756 0 003.705 5.282zm1.5.539a6.553 6.553 0 003 0v1.996a3.297 3.297 0 01-3 0v-1.996zm1.5-1.326a5.256 5.256 0 01-5.25-5.25V37a2.25 2.25 0 012.25-2.25h2a8.306 8.306 0 004.95-1.65l.365-.274.304.456c.412.616.632 1.34.631 2.08V38.5a5.256 5.256 0 01-5.25 5.25zm-3.96 4.795l1.576-.262a4.695 4.695 0 004.77 0l1.575.262a5.517 5.517 0 013.346 1.94 8.972 8.972 0 01-14.611 0 5.517 5.517 0 013.345-1.94zm12.065.592a7.012 7.012 0 00-3.9-2.071l-1.205-.201V44.54a6.755 6.755 0 003.705-5.282 8.943 8.943 0 011.4 9.881v-.002zM48.5 63.25a.75.75 0 01.75.75v6a.75.75 0 01-.75.75H29a.75.75 0 01-.75-.75v-6a.75.75 0 01.75-.75h6.75a.75.75 0 00.651-.375l2.349-4.113 2.349 4.11a.75.75 0 00.651.378h6.75zm-8.07-4.57l-1.029-1.8a.78.78 0 00-1.302 0l-.661 1.156a13.486 13.486 0 01-4.483-23.02 7.35 7.35 0 001.258 2.685l.11.15a10.5 10.5 0 1014.85 0l.11-.15a7.35 7.35 0 001.26-2.685A13.495 13.495 0 0141.75 58.75c-.44 0-.882-.028-1.32-.07zm24.39 12.07a2.414 2.414 0 01-1.72-.713L50.482 57.422a15.09 15.09 0 003.44-3.44l12.615 12.616a2.432 2.432 0 01-1.719 4.152zm-5.162-35.782l-1.38 4.826a.75.75 0 001.2.782l4.022-3.351 4.019 3.35a.75.75 0 001.2-.782l-1.379-4.826 3.438-3.438a.75.75 0 00-.528-1.279h-4.036l-2.039-4.085a.782.782 0 00-1.342 0l-2.046 4.085H56.75a.75.75 0 00-.53 1.28l3.438 3.438zm1.592-3.218a.75.75 0 00.675-.415l1.575-3.158 1.579 3.158a.75.75 0 00.671.415h2.69l-2.47 2.47a.75.75 0 00-.191.736l.83 2.91-2.624-2.192a.75.75 0 00-.961 0l-2.63 2.191.83-2.909a.75.75 0 00-.19-.736l-2.473-2.47h2.69z"/><path d="M73.194 45.713a.75.75 0 00-.694-.463h-4.036l-2.039-4.085a.782.782 0 00-1.342 0l-2.046 4.085H59a.75.75 0 00-.53 1.28l3.438 3.438-1.38 4.826a.75.75 0 001.2.782l4.022-3.351 4.019 3.35a.75.75 0 001.2-.782l-1.379-4.826 3.438-3.438a.75.75 0 00.166-.816zM68.22 49.22a.75.75 0 00-.192.736l.831 2.91-2.625-2.192a.75.75 0 00-.96 0l-2.63 2.191.83-2.909a.75.75 0 00-.19-.736l-2.474-2.47h2.69a.75.75 0 00.674-.415l1.575-3.158 1.579 3.158a.75.75 0 00.671.415h2.69l-2.47 2.47zM47.75 67.75h-18v1.5h18v-1.5zm-1.5-3h-15v1.5h15v-1.5z"/></g><defs><clipPath id="cclip0_3_322"><path fill="#fff" transform="translate(26 25)" d="M0 0h48v48H0z"/></clipPath></defs></svg><svg viewBox="0 0 19 19" id="close" xmlns="http://www.w3.org/2000/svg"><path d="M.977 19a.977.977 0 01-.69-1.67L17.33.287a.977.977 0 111.383 1.383L1.669 18.714A.98.98 0 01.977 19z"/><path d="M18.023 19a.97.97 0 01-.69-.286L.285 1.669A.978.978 0 011.67.286l17.045 17.045a.978.978 0 01-.69 1.67z"/></svg><svg viewBox="0 0 16 16" id="close-menu" xmlns="http://www.w3.org/2000/svg"><path d="M9.762 8l5.982-5.982A.871.871 0 0016 1.399a.868.868 0 00-.256-.619L15.22.256a.868.868 0 00-.619-.255.868.868 0 00-.619.255L8 6.238 2.018.256a.867.867 0 00-.619-.255.867.867 0 00-.619.255L.256.78a.876.876 0 000 1.238L6.238 8 .256 13.982a.87.87 0 00-.255.62c0 .234.09.453.255.618l.524.524A.867.867 0 001.4 16c.234 0 .454-.09.619-.256L8 9.762l5.982 5.982a.868.868 0 00.619.256c.234 0 .454-.09.619-.256l.524-.524a.87.87 0 00.256-.619.87.87 0 00-.256-.618L9.762 8z"/></svg><svg viewBox="0 0 21 16" id="email" xmlns="http://www.w3.org/2000/svg"><g clip-path="url(#fclip0_1_16)"><path d="M19.031.5H1.97C.883.5 0 1.341 0 2.375v11.25C0 14.659.883 15.5 1.969 15.5H19.03c1.086 0 1.969-.841 1.969-1.875V2.375C21 1.341 20.117.5 19.031.5zm0 1.25c.09 0 .174.018.252.048L10.5 9.048l-8.783-7.25a.681.681 0 01.252-.048H19.03zm0 12.5H1.97c-.362 0-.657-.28-.657-.625V3.119l8.758 7.228a.675.675 0 00.43.153.67.67 0 00.43-.153l8.758-7.228v10.506c0 .345-.295.625-.657.625z" fill="#fff"/></g><defs><clipPath id="fclip0_1_16"><path d="M0 0h21v16H0z"/></clipPath></defs></svg><svg viewBox="0 0 11 11" id="hamburger" xmlns="http://www.w3.org/2000/svg"><path d="M9.896 1.042H.52A.521.521 0 01.52 0h9.375a.521.521 0 010 1.042zm0 4.688H.52a.521.521 0 010-1.043h9.375a.521.521 0 010 1.042zm0 4.687H.52a.521.521 0 010-1.042h9.375a.521.521 0 010 1.042z"/></svg><svg viewBox="0 0 22 22" id="instagram" xmlns="http://www.w3.org/2000/svg"><g clip-path="url(#hclip0_1_35)"><path d="M21.979 6.468c-.052-1.169-.241-1.973-.512-2.669a5.37 5.37 0 00-1.272-1.951A5.415 5.415 0 0018.248.58c-.7-.27-1.5-.46-2.669-.511C14.402.013 14.028 0 11.041 0S7.68.013 6.507.064c-1.17.052-1.973.241-2.669.512-.74.28-1.401.709-1.951 1.272A5.416 5.416 0 00.619 3.795c-.27.7-.46 1.5-.511 2.669-.056 1.177-.07 1.551-.07 4.538s.014 3.36.065 4.534c.052 1.17.24 1.973.512 2.67.279.738.713 1.4 1.272 1.95.55.559 1.216.993 1.947 1.268.7.27 1.5.46 2.669.512 1.173.051 1.547.064 4.534.064s3.36-.013 4.534-.064c1.169-.052 1.972-.241 2.668-.512a5.627 5.627 0 003.22-3.219c.27-.7.46-1.5.511-2.669.052-1.173.064-1.547.064-4.534s-.004-3.36-.055-4.534zm-1.982 8.982c-.047 1.075-.227 1.655-.378 2.042a3.65 3.65 0 01-2.089 2.088c-.386.15-.97.331-2.041.379-1.16.051-1.508.064-4.444.064-2.935 0-3.288-.013-4.444-.064-1.074-.048-1.654-.228-2.041-.378a3.386 3.386 0 01-1.264-.822 3.42 3.42 0 01-.82-1.263c-.15-.387-.331-.971-.379-2.041-.051-1.16-.064-1.509-.064-4.444 0-2.936.013-3.288.064-4.444.048-1.074.228-1.655.378-2.041a3.34 3.34 0 01.826-1.264 3.415 3.415 0 011.263-.82c.387-.151.972-.332 2.042-.38 1.16-.05 1.508-.064 4.443-.064 2.94 0 3.288.013 4.444.065 1.075.047 1.655.228 2.042.378.477.176.91.456 1.263.82.366.358.645.787.821 1.265.15.386.331.97.378 2.04.052 1.161.065 1.51.065 4.445 0 2.935-.013 3.279-.065 4.44z"/><path d="M11.04 5.35a5.653 5.653 0 00-5.65 5.652 5.653 5.653 0 005.65 5.652 5.653 5.653 0 005.652-5.652 5.653 5.653 0 00-5.651-5.651zm0 9.318a3.667 3.667 0 11.002-7.333 3.667 3.667 0 01-.001 7.333zm7.195-9.541a1.32 1.32 0 11-2.639 0 1.32 1.32 0 012.64 0z"/></g><defs><clipPath id="hclip0_1_35"><path d="M0 0h22v22H0z"/></clipPath></defs></svg><svg viewBox="0 0 18 23" id="location" xmlns="http://www.w3.org/2000/svg"><g clip-path="url(#iclip0_1_24)"><path d="M8.436 22.7a.68.68 0 001.128 0c1.605-2.392 3.968-5.346 5.615-8.35 1.317-2.403 1.957-4.452 1.957-6.264C17.136 3.627 13.486 0 9 0 4.514 0 .864 3.627.864 8.086c0 1.812.64 3.861 1.957 6.263 1.646 3.003 4.014 5.964 5.615 8.35zM9 1.348c3.739 0 6.78 3.022 6.78 6.738 0 1.581-.586 3.42-1.792 5.619-1.42 2.59-3.445 5.216-4.988 7.425-1.543-2.208-3.569-4.835-4.988-7.425-1.206-2.2-1.792-4.038-1.792-5.62C2.22 4.37 5.26 1.349 9 1.349z"/><path d="M9 12.129c2.243 0 4.068-1.814 4.068-4.043 0-2.23-1.825-4.043-4.068-4.043-2.243 0-4.068 1.814-4.068 4.043 0 2.23 1.825 4.043 4.068 4.043zM9 5.39a2.707 2.707 0 012.712 2.695A2.707 2.707 0 019 10.78a2.707 2.707 0 01-2.712-2.695A2.707 2.707 0 019 5.39z"/></g><defs><clipPath id="iclip0_1_24"><path d="M0 0h18v23H0z"/></clipPath></defs></svg><svg viewBox="0 0 16 16" id="phone" xmlns="http://www.w3.org/2000/svg"><g clip-path="url(#jclip0_1_11)"><path d="M3.26 10.636a16.973 16.973 0 005.646 4.422c.826.392 1.93.856 3.16.935.076.004.15.007.225.007.826 0 1.489-.285 2.03-.872.003-.003.01-.01.013-.017.192-.232.41-.44.64-.663.155-.149.315-.305.467-.464.706-.736.706-1.67-.007-2.383l-1.992-1.993c-.338-.351-.743-.537-1.167-.537-.425 0-.832.186-1.18.534L9.908 10.79a7.503 7.503 0 00-.329-.172 4.105 4.105 0 01-.364-.199c-1.081-.686-2.062-1.581-3-2.732-.475-.6-.793-1.104-1.015-1.618.311-.281.603-.576.885-.865.1-.103.202-.205.305-.308.358-.358.55-.773.55-1.194 0-.42-.189-.835-.55-1.193l-.988-.988c-.116-.116-.225-.229-.338-.345A18.184 18.184 0 004.39.511C4.049.176 3.648 0 3.224 0c-.421 0-.826.176-1.18.514l-1.24 1.24c-.451.45-.707.998-.76 1.631-.063.792.083 1.634.461 2.652.58 1.575 1.456 3.037 2.755 4.599zM.853 3.455c.04-.441.21-.81.527-1.128l1.234-1.233c.192-.186.404-.282.61-.282.202 0 .408.096.597.289.222.205.43.42.656.65l.345.351.988.988c.205.205.311.414.311.62 0 .205-.106.414-.311.62l-.309.312c-.308.311-.596.606-.915.888l-.016.017c-.275.275-.232.537-.166.736l.01.026c.255.614.61 1.197 1.164 1.893.994 1.227 2.042 2.178 3.196 2.911.142.093.295.166.437.239.133.066.256.13.365.199l.037.02a.693.693 0 00.321.082.703.703 0 00.494-.225l1.24-1.24c.192-.192.401-.295.607-.295.252 0 .457.156.587.295l1.999 1.996c.398.398.394.829-.01 1.25-.14.15-.285.292-.441.44-.232.226-.474.458-.693.72-.381.411-.835.604-1.422.604-.057 0-.116-.004-.173-.007-1.087-.07-2.098-.494-2.858-.855a16.126 16.126 0 01-5.374-4.21c-1.236-1.49-2.069-2.875-2.619-4.36C.93 4.853.801 4.12.853 3.454z" fill="#fff"/></g><defs><clipPath id="jclip0_1_11"><path d="M0 0h16v16H0z"/></clipPath></defs></svg><svg viewBox="0 0 22 22" id="twitter" xmlns="http://www.w3.org/2000/svg"><path d="M21.903 4.707a.656.656 0 00-.616-.31l-1.097.095 1.048-2.114a.656.656 0 00-.876-.88l-2.775 1.359c-1.715-.905-3.857-.637-5.33.706-1.23 1.12-1.877 2.844-1.757 4.563-3.215-.323-5.937-2.163-7.546-5.137a.656.656 0 00-1.105-.078C.851 4.26.781 6.11 1.564 7.63a9.942 9.942 0 01-.7-.214.656.656 0 00-.855.73c.31 1.877 1.404 3.32 3.133 4.173a5.516 5.516 0 01-.688.191.656.656 0 00-.345 1.09c1.245 1.332 3.044 1.987 4.321 2.301-1.452 1.138-3.02 1.328-5.3 1.25a.658.658 0 00-.508 1.096c.95 1.047 4.411 2.228 8.05 2.317.143.003.29.005.44.005 2.554 0 5.93-.548 8.354-2.971 1.834-1.834 2.981-3.946 3.41-6.276.346-1.882.127-3.389.022-4.113l-.023-.159 1.026-1.654a.656.656 0 00.002-.69zm-2.304 2.69c.195 1.342.787 5.425-3.06 9.273-2.238 2.237-5.496 2.639-7.836 2.582-1.996-.049-3.782-.43-5.076-.866a8.115 8.115 0 001.436-.301c1.218-.379 2.248-1.06 3.24-2.145a.656.656 0 00-.401-1.093c-.626-.08-2.506-.397-3.986-1.418a7.062 7.062 0 001.23-.653.656.656 0 00-.195-1.182c-1.212-.317-2.674-1.028-3.348-2.615.43.076.898.094 1.398-.018a.656.656 0 00.328-1.096c-.839-.869-1.153-2.12-.883-3.192a11.193 11.193 0 003.277 3.174 10.884 10.884 0 005.525 1.638.658.658 0 00.656-.798c-.34-1.53.145-3.16 1.236-4.154 1.132-1.03 2.804-1.187 4.068-.38a.656.656 0 00.641.036l1.356-.663-.71 1.43a.656.656 0 00.645.945l.956-.083-.44.71c-.148.237-.118.449-.057.87z"/></svg><svg viewBox="0 0 22 22" id="vk" xmlns="http://www.w3.org/2000/svg"><g clip-path="url(#lclip0_1_40)"><path d="M11.133 17.875c3.183 0 2.048-2.015 2.293-2.594-.003-.433-.007-.849.008-1.102.201.057.677.298 1.66 1.253 1.517 1.53 1.905 2.443 3.13 2.443h2.256c.715 0 1.087-.296 1.273-.544.18-.24.356-.662.164-1.319-.504-1.58-3.439-4.309-3.621-4.597.027-.053.071-.123.094-.16h-.002c.58-.766 2.79-4.078 3.116-5.404l.002-.007c.176-.605.015-.998-.152-1.22-.251-.331-.651-.499-1.191-.499h-2.256c-.755 0-1.328.38-1.618 1.074-.485 1.233-1.847 3.769-2.868 4.666a58.735 58.735 0 01.006-2.963c.033-1.407.14-2.777-1.32-2.777H8.56c-.915 0-1.79 1-.843 2.185.829 1.04.298 1.62.477 4.503-.697-.747-1.936-2.765-2.812-5.343-.246-.698-.618-1.344-1.666-1.344H1.461C.546 4.126 0 4.625 0 5.46c0 1.875 4.152 12.415 11.133 12.415zM3.717 5.501c.199 0 .22 0 .367.419.897 2.643 2.91 6.553 4.38 6.553 1.105 0 1.105-1.132 1.105-1.558V7.52c-.062-1.122-.471-1.68-.739-2.02l3.216.004c.002.015-.018 3.753.01 4.66 0 1.285 1.02 2.022 2.614.409 1.682-1.899 2.846-4.737 2.892-4.852.07-.165.129-.221.345-.221h2.266l-.003.008c-.206.963-2.242 4.03-2.923 4.982a.821.821 0 00-.031.046c-.3.49-.544 1.03.041 1.791h.001c.053.065.192.215.393.424.627.647 2.778 2.86 2.968 3.74-.126.02-.264.005-2.395.01-.454 0-.808-.678-2.162-2.044-1.218-1.185-2.008-1.669-2.727-1.669-1.397 0-1.296 1.134-1.283 2.506.005 1.486-.004 1.016.006 1.11-.082.032-.316.096-.925.096-5.816 0-9.604-9.232-9.75-10.996.05-.005.745-.002 2.334-.003z"/></g><defs><clipPath id="lclip0_1_40"><path d="M0 0h22v22H0z"/></clipPath></defs></svg></svg>